#!OML:ASF I:\Random Stuff\random\construction\7_22_03\Session 2\subj1.ASF
:FULLY-SPECIFIED
:DEGREES
529
root 4.81385 17.5645 1.25802 -116.448 88.3832 -125.007
lowerback 1.91999 1.796 -0.444804
upperback -2.53174 2.42481 0.676352
thorax -3.72779 1.23868 0.819218
lowerneck -21.3887 -0.543432 0.855732
upperneck 31.9184 -1.36755 2.52808
head 14.6353 0.142346 0.702599
rclavicle 1.75055e-014 -6.55989e-015
rhumerus -57.3768 43.0243 -70.1139
rradius 81.5879
rwrist -36.7437
rhand 58.1155 19.4484
rfingers 7.12502
rthumb 74.0861 45.3882
lclavicle 1.75055e-014 -6.55989e-015
lhumerus -54.8492 -35.1393 79.2202
lradius 88.65
lwrist 51.7938
lhand 14.1957 70.4951
lfingers 7.12502
lthumb 39.094 -95.9881
rfemur -7.95442 24.203 20.9999
rtibia 18.3762
rfoot -23.1689 -42.5632
rtoes 16.0594
lfemur -20.1856 -19.6572 -15.84
ltibia 30.0274
lfoot -18.1661 14.8891
ltoes -27.9255
530
root 4.83352 17.5669 1.24463 -114.239 88.3968 -122.885
lowerback 1.90764 1.71368 -0.480135
upperback -2.49786 2.31416 0.7137
thorax -3.68657 1.18474 0.884234
lowerneck -21.5662 -0.437906 0.873586
upperneck 31.7703 -1.22423 2.48859
head 14.6053 0.191649 0.706526
rclavicle 2.98736e-014 1.40143e-014
rhumerus -57.433 42.4162 -70.558
rradius 77.5386
rwrist -32.5294
rhand 56.1053 17.8411
rfingers 7.12502
rthumb 73.3239 37.4122
lclavicle 2.98736e-014 1.40143e-014
lhumerus -56.4293 -34.8632 81.5617
lradius 83.6282
lwrist 46.3644
lhand 11.96 69.4949
lfingers 7.12502
lthumb 36.9829 -95.5638
rfemur -7.97846 24.2605 20.9548
rtibia 18.3435
rfoot -23.2235 -42.5771
rtoes 16.0961
lfemur -20.1797 -19.503 -15.8761
ltibia 29.9872
lfoot -18.2001 14.7921
ltoes -27.8136
531
root 4.85528 17.5698 1.23179 -111.234 88.4636 -119.965
lowerback 1.92211 1.63713 -0.560469
upperback -2.46748 2.20827 0.719021
thorax -3.66441 1.13379 0.940246
lowerneck -21.747 -0.290769 0.951067
upperneck 31.6383 -1.03824 2.43879
head 14.5827 0.26571 0.704398
rclavicle 5.98839e-015 -1.86858e-014
rhumerus -57.0564 41.3145 -70.3124
rradius 73.4839
rwrist -28.4423
rhand 52.8422 16.0709
rfingers 7.12502
rthumb 71.6908 26.6565
lclavicle 5.98839e-015 -1.86858e-014
lhumerus -57.2296 -33.5644 82.5169
lradius 78.6099
lwrist 42.5634
lhand 10.5985 69.2721
lfingers 7.12502
lthumb 35.6938 -95.6632
rfemur -7.98903 24.3609 20.8541
rtibia 18.2856
rfoot -23.4579 -42.5076
rtoes 17.1672
lfemur -20.1636 -19.2816 -15.969
ltibia 29.9724
lfoot -18.2665 14.6698
ltoes -27.7827
532
root 4.87614 17.5682 1.21783 -107.316 88.5621 -116.115
lowerback 1.97973 1.58002 -0.641188
upperback -2.43519 2.12636 0.68024
thorax -3.66323 1.09396 0.948638
lowerneck -21.9603 -0.135271 1.11981
upperneck 31.5372 -0.862999 2.35122
head 14.5812 0.341988 0.669973
rclavicle -2.08413e-014 -1.85864e-014
rhumerus -56.3798 39.8936 -69.5919
rradius 69.3998
rwrist -25.0775
rhand 47.559 13.9843
rfingers 7.12502
rthumb 68.2785 13.4315
lclavicle -2.08413e-014 -1.85864e-014
lhumerus -57.6597 -31.7472 82.7564
lradius 73.5651
lwrist 39.0488
lhand 8.00833 68.0369
lfingers 7.12502
lthumb 33.2349 -94.9872
rfemur -7.99654 24.485 20.7497
rtibia 18.2686
rfoot -23.1514 -42.674
rtoes 15.91
lfemur -20.1188 -19.1336 -16.096
ltibia 29.9491
lfoot -18.346 14.6293
ltoes -27.6383
533
root 4.89704 17.5661 1.20192 -101.523 88.6551 -110.373
lowerback 2.04978 1.5504 -0.6793
upperback -2.42527 2.08255 0.626275
thorax -3.69089 1.07204 0.914903
lowerneck -22.0565 -0.0285129 1.26577
upperneck 31.4249 -0.745337 2.26619
head 14.5499 0.391924 0.629613
rclavicle 1.77788e-014 4.87022e-015
rhumerus -55.6112 38.4782 -68.6795
rradius 65.2844
rwrist -23.1049
rhand 40.355 11.1218
rfingers 7.12502
rthumb 62.6888 0.512813
lclavicle 1.77788e-014 4.87022e-015
lhumerus -57.4949 -29.1915 81.9006
lradius 68.8775
lwrist 36.6648
lhand 4.31558 67.0785
lfingers 7.12502
lthumb 29.7169 -94.7166
rfemur -8.00788 24.639 20.653
rtibia 18.2854
rfoot -22.7731 -42.8711
rtoes 14.2092
lfemur -20.0412 -19.0232 -16.223
ltibia 29.9177
lfoot -18.4269 14.6458
ltoes -27.4477
534
root 4.91992 17.5662 1.18484 -94.4709 88.7737 -103.368
lowerback 2.09554 1.53567 -0.761178
upperback -2.42855 2.05753 0.578152
thorax -3.72076 1.06098 0.911169
lowerneck -22.0306 0.0590055 1.36382
upperneck 31.2955 -0.627449 2.17269
head 14.4844 0.435152 0.59361
rclavicle 1.88224e-014 1.43622e-014
rhumerus -54.7376 36.8596 -67.4964
rradius 61.3323
rwrist -22.2571
rhand 31.7672 7.60102
rfingers 7.12502
rthumb 55.2883 -10.327
lclavicle 1.88224e-014 1.43622e-014
lhumerus -57.0596 -26.0769 80.3471
lradius 64.5041
lwrist 34.3502
lhand -0.062676 66.5615
lfingers 7.12502
lthumb 25.5303 -94.8709
rfemur -8.02357 24.8012 20.4967
rtibia 18.2935
rfoot -22.4253 -43.0324
rtoes 13.0307
lfemur -19.9507 -18.8877 -16.4025
ltibia 29.894
lfoot -18.501 14.6662
ltoes -27.3076
535
root 4.94396 17.5682 1.16763 -86.0364 88.8332 -94.986
lowerback 2.09484 1.53738 -0.846367
upperback -2.4273 2.05565 0.557156
thorax -3.72134 1.06197 0.937356
lowerneck -22.0585 0.0934145 1.39192
upperneck 31.2437 -0.574083 2.11835
head 14.4665 0.450615 0.57536
rclavicle 5.56597e-015 9.0944e-015
rhumerus -53.7408 34.8944 -65.9894
rradius 57.7012
rwrist -22.1374
rhand 20.9254 2.96064
rfingers 7.12502
rthumb 45.3962 -20.3811
lclavicle 5.56597e-015 9.0944e-015
lhumerus -56.4119 -22.6195 78.1719
lradius 60.3344
lwrist 32.6342
lhand -5.16119 66.5518
lfingers 7.12502
lthumb 20.6385 -95.4745
rfemur -8.05231 24.9651 20.3767
rtibia 18.3066
rfoot -22.0581 -43.2051
rtoes 11.8936
lfemur -19.8666 -18.8792 -16.5274
ltibia 29.8712
lfoot -18.58 14.8016
ltoes -27.085
536
root 4.96791 17.5691 1.15141 -75.9981 88.8143 -84.998
lowerback 2.08978 1.5754 -0.902713
upperback -2.4459 2.10373 0.53387
thorax -3.74013 1.08734 0.942103
lowerneck -22.0629 0.0651613 1.40578
upperneck 31.2209 -0.601106 2.05422
head 14.4568 0.430046 0.541148
rclavicle 2.05245e-014 -2.83268e-015
rhumerus -52.7427 32.8358 -64.3897
rradius 54.2957
rwrist -22.7641
rhand 9.16083 -1.32955
rfingers 7.12502
rthumb 34.33 -28.0395
lclavicle 2.05245e-014 -2.83268e-015
lhumerus -55.6433 -19.035 75.5742
lradius 56.1994
lwrist 31.2891
lhand -9.43594 66.9329
lfingers 7.12502
lthumb 16.5268 -96.2491
rfemur -8.06613 25.168 20.3146
rtibia 18.312
rfoot -21.8059 -43.3459
rtoes 10.9418
lfemur -19.7746 -19.0802 -16.5794
ltibia 29.8578
lfoot -18.6944 15.1459
ltoes -26.781
537
root 4.99278 17.5682 1.13506 -66.9706 88.7674 -76.0406
lowerback 2.05267 1.63655 -0.910071
upperback -2.50644 2.18396 0.464328
thorax -3.78133 1.12725 0.870315
lowerneck -21.8501 0.0174802 1.43302
upperneck 31.0909 -0.659934 2.01219
head 14.3522 0.399111 0.505657
rclavicle -1.02801e-014 -1.06226e-014
rhumerus -51.699 30.4621 -62.6063
rradius 51.0175
rwrist -23.6944
rhand -2.60757 -4.24647
rfingers 7.12502
rthumb 23.0905 -32.8829
lclavicle -1.02801e-014 -1.06226e-014
lhumerus -54.7884 -15.3032 72.5303
lradius 52.5102
lwrist 31.0427
lhand -12.9929 66.7372
lfingers 7.12502
lthumb 13.1 -96.3058
rfemur -8.07525 25.3605 20.2438
rtibia 18.2909
rfoot -21.5818 -43.4783
rtoes 9.87661
lfemur -19.7111 -19.2668 -16.634
ltibia 29.865
lfoot -18.8035 15.5089
ltoes -26.5887
538
root 5.01791 17.5691 1.11835 -61.6279 88.6907 -70.7958
lowerback 1.95166 1.73628 -0.830239
upperback -2.58264 2.31931 0.373673
thorax -3.79918 1.19207 0.726894
lowerneck -21.539 -0.10727 1.3317
upperneck 30.896 -0.822359 2.09857
head 14.1998 0.326018 0.524694
rclavicle -2.31258e-014 -1.10574e-014
rhumerus -50.5495 27.4029 -60.3086
rradius 47.9549
rwrist -24.4067
rhand -12.8162 -5.5808
rfingers 7.12502
rthumb 13.2704 -35.1383
lclavicle -2.31258e-014 -1.10574e-014
lhumerus -53.9132 -11.601 69.1927
lradius 49.265
lwrist 32.0539
lhand -16.6101 67.9639
lfingers 7.12502
lthumb 9.61153 -97.7247
rfemur -8.08689 25.4998 20.1919
rtibia 18.2623
rfoot -21.7119 -43.4952
rtoes 9.5652
lfemur -19.7047 -19.2276 -16.6652
ltibia 29.886
lfoot -18.8448 15.6294
ltoes -26.6873
539
root 5.0413 17.5694 1.10178 -57.3156 88.6241 -66.5447
lowerback 1.90654 1.8691 -0.78466
upperback -2.63878 2.49704 0.292239
thorax -3.8298 1.27877 0.608552
lowerneck -21.4153 -0.296834 1.13516
upperneck 30.8268 -1.05082 2.18754
head 14.1454 0.216409 0.551758
rclavicle 1.31074e-015 -1.61513e-015
rhumerus -49.3038 23.7394 -57.5028
rradius 45.1587
rwrist -24.631
rhand -20.402 -5.66078
rfingers 7.12502
rthumb 5.95167 -35.5572
lclavicle 1.31074e-015 -1.61513e-015
lhumerus -53.0233 -7.76436 65.5256
lradius 46.2297
lwrist 33.0707
lhand -18.9949 68.4363
lfingers 7.12502
lthumb 7.31003 -98.29
rfemur -8.04678 25.6234 20.1397
rtibia 18.2317
rfoot -21.9375 -43.4735
rtoes 9.53149
lfemur -19.6693 -19.0422 -16.7336
ltibia 29.9065
lfoot -18.8628 15.5674
ltoes -26.9002
540
root 5.06356 17.5683 1.08362 -52.3799 88.5562 -61.5957
lowerback 1.9489 1.96895 -0.799591
upperback -2.67615 2.62749 0.220968
thorax -3.89223 1.34342 0.534148
lowerneck -21.3637 -0.426404 1.04315
upperneck 30.8575 -1.20168 2.18809
head 14.1493 0.142368 0.540945
rclavicle 2.95382e-014 4.72114e-015
rhumerus -48.0125 19.7558 -54.4549
rradius 42.674
rwrist -24.3543
rhand -25.7464 -5.02275
rfingers 7.12502
rthumb 0.790668 -35.001
lclavicle 2.95382e-014 4.72114e-015
lhumerus -52.4408 -4.14415 62.0459
lradius 44.2068
lwrist 35.8991
lhand -22.1732 70.3105
lfingers 7.12502
lthumb 4.24153 -100.248
rfemur -7.92949 25.7596 20.0965
rtibia 18.1866
rfoot -21.6892 -43.586
rtoes 8.60034
lfemur -19.5523 -18.8757 -16.8548
ltibia 29.9287
lfoot -18.9494 15.5033
ltoes -26.7702
541
root 5.08474 17.5696 1.06454 -48.4684 88.4743 -57.6619
lowerback 1.97418 2.03937 -0.810384
upperback -2.71229 2.71921 0.158041
thorax -3.94304 1.38877 0.468604
lowerneck -21.2683 -0.493143 0.954011
upperneck 30.878 -1.28186 2.25502
head 14.1395 0.108617 0.569287
rclavicle -2.77988e-014 8.64713e-015
rhumerus -46.8703 15.7699 -51.4432
rradius 40.5952
rwrist -24.2506
rhand -30.2609 -3.99708
rfingers 7.12502
rthumb -3.56945 -33.9469
lclavicle -2.77988e-014 8.64713e-015
lhumerus -52.0388 -0.515704 58.3964
lradius 42.1552
lwrist 38.2474
lhand -24.1183 71.1239
lfingers 7.12502
lthumb 2.36311 -101.091
rfemur -7.79153 25.8899 20.0713
rtibia 18.1349
rfoot -21.5327 -43.6584
rtoes 7.94495
lfemur -19.44 -18.7335 -16.9632
ltibia 29.9552
lfoot -19.0627 15.4302
ltoes -26.2573
542
root 5.10579 17.5701 1.0464 -47.172 88.3689 -56.3486
lowerback 1.9573 2.08998 -0.815624
upperback -2.74246 2.78614 0.125867
thorax -3.96451 1.4221 0.434679
lowerneck -21.1754 -0.524739 0.805002
upperneck 30.8551 -1.31333 2.39106
head 14.1119 0.0970311 0.643998
rclavicle 2.36678e-015 3.77691e-015
rhumerus -45.9159 12.0852 -48.7067
rradius 38.8721
rwrist -24.9649
rhand -34.3282 -2.62714
rfingers 7.12502
rthumb -7.49633 -32.4743
lclavicle 2.36678e-015 3.77691e-015
lhumerus -51.8846 2.76238 54.9783
lradius 40.6856
lwrist 40.8502
lhand -25.4833 72.793
lfingers 7.12502
lthumb 1.04482 -102.77
rfemur -7.63033 25.992 20.1098
rtibia 18.0604
rfoot -21.645 -43.6531
rtoes 7.72772
lfemur -19.3416 -18.5589 -17.0085
ltibia 29.9908
lfoot -19.1746 15.3054
ltoes -25.7769
